<svg xmlns="http://www.w3.org/2000/svg" xmlns:xlink="http://www.w3.org/1999/xlink" width="109.953" height="109.953" viewBox="0 0 109.953 109.953">
  <defs>
    <linearGradient id="linear-gradient" x1="0.5" y1="1" x2="0.5" gradientUnits="objectBoundingBox">
      <stop offset="0" stop-color="#fdaf00"/>
      <stop offset="1" stop-color="#ffce00"/>
    </linearGradient>
    <filter id="Fabric_Icons" x="0" y="0" width="109.953" height="109.953" filterUnits="userSpaceOnUse">
      <feOffset dy="3" input="SourceAlpha"/>
      <feGaussianBlur stdDeviation="3" result="blur"/>
      <feFlood flood-opacity="0.161"/>
      <feComposite operator="in" in2="blur"/>
      <feComposite in="SourceGraphic"/>
    </filter>
  </defs>
  <g transform="matrix(1, 0, 0, 1, 0, 0)" filter="url(#Fabric_Icons)">
    <path id="Fabric_Icons-2" data-name="Fabric Icons" d="M41.217-87.545a29.819,29.819,0,0,0-.7,3.48,31.585,31.585,0,0,0-.292,3.569A44.473,44.473,0,0,1,29.274-83.19,44.5,44.5,0,0,1,19.6-88.376a46.647,46.647,0,0,1-8.082-7.274,46.061,46.061,0,0,1-6.174-8.957,46.969,46.969,0,0,1-3.951-10.259A44.6,44.6,0,0,1,0-126.023a45.288,45.288,0,0,1,1.639-12.213,46.5,46.5,0,0,1,4.625-11,45.657,45.657,0,0,1,7.184-9.317,45.658,45.658,0,0,1,9.317-7.184,46.594,46.594,0,0,1,10.978-4.625A45.213,45.213,0,0,1,45.977-172a45.044,45.044,0,0,1,12.19,1.639,46.036,46.036,0,0,1,10.978,4.647,46.3,46.3,0,0,1,9.317,7.206,46.3,46.3,0,0,1,7.206,9.317,46.036,46.036,0,0,1,4.647,10.978,45.044,45.044,0,0,1,1.639,12.19H88.765q-.629-1.033-1.325-2.02a16.707,16.707,0,0,0-1.549-1.886,33.939,33.939,0,0,0-1.392-7.588h-55q-.359,2.873-.561,5.725t-.2,5.77q0,2.918.2,5.77t.561,5.725H45.977a18.588,18.588,0,0,0,.224,2.874q.224,1.437.584,2.874h-16.3q.539,2.559,1.459,5.612a49.081,49.081,0,0,0,2.245,5.994A34.7,34.7,0,0,0,37.266-91.7,17.223,17.223,0,0,0,41.217-87.545ZM82.3-143.265a40.517,40.517,0,0,0-4.153-6.825,41.478,41.478,0,0,0-5.365-5.859,40.292,40.292,0,0,0-6.4-4.714,38.4,38.4,0,0,0-7.251-3.345,36.335,36.335,0,0,1,2.9,4.759,51.886,51.886,0,0,1,2.29,5.186,54.937,54.937,0,0,1,1.729,5.388q.718,2.716,1.257,5.41ZM45.977-166.253a7.6,7.6,0,0,0-4.153,1.212,14.534,14.534,0,0,0-3.5,3.188,26,26,0,0,0-2.874,4.467,52.2,52.2,0,0,0-2.267,5.051q-.988,2.559-1.661,4.939t-1.033,4.131h30.98q-.359-1.751-1.033-4.131t-1.661-4.939a52.2,52.2,0,0,0-2.267-5.051,26,26,0,0,0-2.874-4.467,14.347,14.347,0,0,0-3.525-3.188A7.633,7.633,0,0,0,45.977-166.253Zm-13.111,2.2a39.037,39.037,0,0,0-7.274,3.345,39.807,39.807,0,0,0-6.421,4.714,41.886,41.886,0,0,0-5.388,5.882,38.375,38.375,0,0,0-4.131,6.847h15q.494-2.469,1.235-5.276t1.774-5.567a53.364,53.364,0,0,1,2.335-5.343A28.035,28.035,0,0,1,32.866-164.053ZM5.747-126.023a39.685,39.685,0,0,0,1.661,11.494h16.3q-.359-2.874-.539-5.725t-.18-5.77q0-2.918.18-5.77t.539-5.725H7.408A39.684,39.684,0,0,0,5.747-126.023Zm3.816,17.241a41.321,41.321,0,0,0,4.153,6.847A39.235,39.235,0,0,0,19.1-96.076a41.481,41.481,0,0,0,6.443,4.692,39.035,39.035,0,0,0,7.274,3.345,36.335,36.335,0,0,1-2.9-4.759,53.056,53.056,0,0,1-2.29-5.163,56.55,56.55,0,0,1-1.751-5.388q-.741-2.739-1.28-5.433Zm69.549,8.127a24.111,24.111,0,0,1,5.3,3.637,22.865,22.865,0,0,1,4.063,4.849,22.989,22.989,0,0,1,2.582,5.77,22.552,22.552,0,0,1,.9,6.353H86.206a16.8,16.8,0,0,0-1.347-6.69,17.378,17.378,0,0,0-3.7-5.5,17.378,17.378,0,0,0-5.5-3.7,16.8,16.8,0,0,0-6.69-1.347,16.754,16.754,0,0,0-6.712,1.347,17.448,17.448,0,0,0-5.478,3.7,17.378,17.378,0,0,0-3.7,5.5,16.8,16.8,0,0,0-1.347,6.69H45.977a22.552,22.552,0,0,1,.9-6.353,23.472,23.472,0,0,1,2.559-5.77,22.326,22.326,0,0,1,4.041-4.849,24.112,24.112,0,0,1,5.3-3.637,16.585,16.585,0,0,1-5.208-6.084,17.1,17.1,0,0,1-1.841-7.79,16.8,16.8,0,0,1,1.347-6.69,17.378,17.378,0,0,1,3.7-5.5,17.448,17.448,0,0,1,5.478-3.7,16.754,16.754,0,0,1,6.712-1.347,16.8,16.8,0,0,1,6.69,1.347,17.378,17.378,0,0,1,5.5,3.7,17.378,17.378,0,0,1,3.7,5.5,16.8,16.8,0,0,1,1.347,6.69,16.931,16.931,0,0,1-1.863,7.79A16.787,16.787,0,0,1,79.112-100.656Zm-10.147-2.38a11.185,11.185,0,0,0,4.467-.9,11.609,11.609,0,0,0,3.659-2.469,11.609,11.609,0,0,0,2.469-3.659,11.185,11.185,0,0,0,.9-4.467,11.185,11.185,0,0,0-.9-4.467,11.609,11.609,0,0,0-2.469-3.659,11.609,11.609,0,0,0-3.659-2.469,11.185,11.185,0,0,0-4.467-.9,11.185,11.185,0,0,0-4.467.9,11.608,11.608,0,0,0-3.659,2.469A11.609,11.609,0,0,0,58.369-119a11.185,11.185,0,0,0-.9,4.467,11.185,11.185,0,0,0,.9,4.467,11.609,11.609,0,0,0,2.469,3.659,11.609,11.609,0,0,0,3.659,2.469A11.185,11.185,0,0,0,68.965-103.035Z" transform="translate(9 178)" fill="url(#linear-gradient)"/>
  </g>
</svg>
